<svg xmlns="http://www.w3.org/2000/svg" width="24" height="24" viewBox="0 0 24 24" fill="none" stroke="#ffffff" stroke-width="2" stroke-linecap="round" stroke-linejoin="round">
  <!-- Main chip body -->
  <rect x="6" y="6" width="12" height="12" rx="1" />

  <!-- Inner square (processor core) -->
  <rect x="9" y="9" width="6" height="6" rx="0.5" />

  <!-- Left pins -->
  <line x1="2" y1="8" x2="6" y2="8" />
  <line x1="2" y1="12" x2="6" y2="12" />
  <line x1="2" y1="16" x2="6" y2="16" />

  <!-- Right pins -->
  <line x1="18" y1="8" x2="22" y2="8" />
  <line x1="18" y1="12" x2="22" y2="12" />
  <line x1="18" y1="16" x2="22" y2="16" />

  <!-- Top pins -->
  <line x1="8" y1="2" x2="8" y2="6" />
  <line x1="12" y1="2" x2="12" y2="6" />
  <line x1="16" y1="2" x2="16" y2="6" />

  <!-- Bottom pins -->
  <line x1="8" y1="18" x2="8" y2="22" />
  <line x1="12" y1="18" x2="12" y2="22" />
  <line x1="16" y1="18" x2="16" y2="22" />
</svg>
