<svg xmlns="http://www.w3.org/2000/svg" width="100" height="100" viewBox="0 0 100 100" fill="none" stroke="currentColor" stroke-width="3.5" stroke-linecap="round" stroke-linejoin="round">
  <!-- Top connector with detail -->
  <rect x="35" y="6" width="30" height="8" rx="1.5" stroke-width="3.5"/>
  <line x1="42" y1="14" x2="42" y2="20" stroke-width="3"/>
  <line x1="58" y1="14" x2="58" y2="20" stroke-width="3"/>

  <!-- Precision coil wire (tight, uniform spacing) -->
  <g stroke-width="4.5">
    <!-- Front side -->
    <path d="M 42 20 Q 30 25, 42 30 Q 54 35, 42 40 Q 30 45, 42 50 Q 54 55, 42 60 Q 30 65, 42 70 Q 54 75, 42 80 Q 30 85, 42 90 Q 54 95, 42 100 Q 30 105, 42 110"/>

    <!-- Back side (lighter) -->
    <path d="M 58 20 Q 70 25, 58 30 Q 46 35, 58 40 Q 70 45, 58 50 Q 46 55, 58 60 Q 70 65, 58 70 Q 46 75, 58 80 Q 70 85, 58 90 Q 46 95, 58 100 Q 70 105, 58 110" opacity="0.45"/>
  </g>

  <!-- Wire thickness indicators (subtle) -->
  <circle cx="42" cy="40" r="6.5" fill="none" stroke-width="2" opacity="0.3"/>
  <circle cx="42" cy="70" r="6.5" fill="none" stroke-width="2" opacity="0.3"/>
  <circle cx="42" cy="100" r="6.5" fill="none" stroke-width="2" opacity="0.3"/>

  <!-- Bottom connector with detail -->
  <line x1="42" y1="110" x2="42" y2="116" stroke-width="3"/>
  <line x1="58" y1="110" x2="58" y2="116" stroke-width="3"/>
  <rect x="35" y="116" width="30" height="8" rx="1.5" stroke-width="3.5"/>

  <!-- SMA activation symbol (thermal) -->
  <g transform="translate(83, 62)" stroke="#ff6b6b" fill="none">
    <circle cx="0" cy="-12" r="6.5" stroke-width="2.5"/>
    <path d="M -2.5 -5.5 L 0 1.5 L 2.5 -5.5" stroke-width="2.5" stroke-linecap="round" stroke-linejoin="round"/>
    <path d="M -5 6.5 L 5 6.5" stroke-width="2.5"/>
    <path d="M -3.5 11 L 3.5 11" stroke-width="2.5"/>
    <path d="M -1.5 15.5 L 1.5 15.5" stroke-width="2.5"/>
  </g>
</svg>
