<svg xmlns="http://www.w3.org/2000/svg" width="24" height="24" viewBox="0 0 24 24" fill="none" stroke="currentColor" stroke-width="2" stroke-linecap="round" stroke-linejoin="round">
  <!-- Top mount -->
  <line x1="8" y1="3" x2="16" y2="3"/>
  <circle cx="12" cy="3" r="1"/>

  <!-- Spring coils (side view) -->
  <path d="M 10 5 Q 8 7, 10 9 Q 12 11, 10 13 Q 8 15, 10 17 Q 12 19, 10 21"/>
  <path d="M 14 5 Q 16 7, 14 9 Q 12 11, 14 13 Q 16 15, 14 17 Q 12 19, 14 21"/>

  <!-- Bottom mount -->
  <line x1="8" y1="21" x2="16" y2="21"/>
  <circle cx="12" cy="21" r="1"/>

  <!-- Activation indicator (heat/current) -->
  <path d="M 18 12 L 20 10 L 20 14 L 22 12" stroke-width="1.5"/>
</svg>
