<svg xmlns="http://www.w3.org/2000/svg" width="24" height="24" viewBox="0 0 24 24" fill="none" stroke="currentColor" stroke-width="2" stroke-linecap="round" stroke-linejoin="round">
  <!-- Top fixture -->
  <rect x="6" y="2" width="12" height="2" rx="0.5"/>
  <circle cx="12" cy="3" r="0.8" fill="currentColor"/>

  <!-- Wire cross-section circles (showing coil density) -->
  <circle cx="8" cy="6" r="1.5" stroke-width="1.5"/>
  <circle cx="16" cy="6" r="1.5" stroke-width="1.5" opacity="0.4"/>

  <circle cx="16" cy="8.5" r="1.5" stroke-width="1.5"/>
  <circle cx="8" cy="8.5" r="1.5" stroke-width="1.5" opacity="0.4"/>

  <circle cx="8" cy="11" r="1.5" stroke-width="1.5"/>
  <circle cx="16" cy="11" r="1.5" stroke-width="1.5" opacity="0.4"/>

  <circle cx="16" cy="13.5" r="1.5" stroke-width="1.5"/>
  <circle cx="8" cy="13.5" r="1.5" stroke-width="1.5" opacity="0.4"/>

  <circle cx="8" cy="16" r="1.5" stroke-width="1.5"/>
  <circle cx="16" cy="16" r="1.5" stroke-width="1.5" opacity="0.4"/>

  <circle cx="16" cy="18.5" r="1.5" stroke-width="1.5"/>
  <circle cx="8" cy="18.5" r="1.5" stroke-width="1.5" opacity="0.4"/>

  <!-- Bottom fixture -->
  <circle cx="12" cy="21" r="0.8" fill="currentColor"/>
  <rect x="6" y="20" width="12" height="2" rx="0.5"/>

  <!-- Connecting lines (showing spring structure) -->
  <path d="M 9.2 6.8 L 14.8 7.7" stroke-width="0.8" opacity="0.3"/>
  <path d="M 14.8 9.3 L 9.2 10.2" stroke-width="0.8" opacity="0.3"/>
  <path d="M 9.2 11.8 L 14.8 12.7" stroke-width="0.8" opacity="0.3"/>
  <path d="M 14.8 14.3 L 9.2 15.2" stroke-width="0.8" opacity="0.3"/>
  <path d="M 9.2 16.8 L 14.8 17.7" stroke-width="0.8" opacity="0.3"/>
</svg>
